<svg width="16" height="16" viewBox="0 0 16 16" fill="none" xmlns="http://www.w3.org/2000/svg">
<path fill-rule="evenodd" clip-rule="evenodd" d="M1.0112 2.74022C1.24428 2.3543 2.70215 0.608285 3.61858 0.650661C3.89252 0.673362 4.13468 0.839082 4.33143 1.03129C4.78321 1.47245 6.0765 3.141 6.1499 3.49211C6.3285 4.35325 4.83585 5.12409 5.1499 5.99204C5.95054 7.95116 7.68992 9.6922 9.6499 10.492C10.5171 10.8061 11.2887 9.31285 12.1499 9.49219C12.5003 9.56559 14.2087 11.0404 14.6499 11.4922C14.8414 11.6882 15.0078 11.9311 15.0305 12.205C15.0646 13.1698 13.1926 14.4639 12.902 14.6304C12.2164 15.1208 11.3219 15.1124 10.2314 14.6054C7.18854 13.3395 2.32567 8.56841 1.03617 5.41066C0.542772 4.32629 0.508718 3.4258 1.0112 2.74022Z" stroke="#369BFF" stroke-width="1.3" stroke-linecap="round" stroke-linejoin="round"/>
</svg>
