<svg width="16" height="16" viewBox="0 0 16 16" fill="none" xmlns="http://www.w3.org/2000/svg">
<path d="M7.93359 9.93311C9.03816 9.93311 9.93359 9.03768 9.93359 7.93311C9.93359 6.82854 9.03816 5.93311 7.93359 5.93311C6.82902 5.93311 5.93359 6.82854 5.93359 7.93311C5.93359 9.03768 6.82902 9.93311 7.93359 9.93311Z" stroke="#413DFB" stroke-width="1.2" stroke-linecap="round" stroke-linejoin="round"/>
<path d="M12.8668 9.93343C12.778 10.1345 12.7515 10.3576 12.7908 10.5738C12.83 10.7901 12.9331 10.9896 13.0868 11.1468L13.1268 11.1868C13.2507 11.3106 13.3491 11.4576 13.4162 11.6195C13.4833 11.7814 13.5178 11.9549 13.5178 12.1301C13.5178 12.3053 13.4833 12.4788 13.4162 12.6407C13.3491 12.8025 13.2507 12.9496 13.1268 13.0734C13.0029 13.1974 12.8559 13.2957 12.694 13.3628C12.5322 13.4299 12.3586 13.4645 12.1834 13.4645C12.0082 13.4645 11.8347 13.4299 11.6728 13.3628C11.511 13.2957 11.3639 13.1974 11.2401 13.0734L11.2001 13.0334C11.043 12.8797 10.8434 12.7766 10.6272 12.7374C10.4109 12.6982 10.1878 12.7247 9.98676 12.8134C9.78958 12.8979 9.62142 13.0383 9.50297 13.2171C9.38452 13.396 9.32095 13.6056 9.3201 13.8201V13.9334C9.3201 14.2871 9.17962 14.6262 8.92957 14.8762C8.67952 15.1263 8.34039 15.2668 7.98676 15.2668C7.63314 15.2668 7.294 15.1263 7.04395 14.8762C6.79391 14.6262 6.65343 14.2871 6.65343 13.9334V13.8734C6.64827 13.6528 6.57684 13.4388 6.44844 13.2592C6.32003 13.0797 6.14059 12.943 5.93343 12.8668C5.73235 12.778 5.5093 12.7515 5.29304 12.7908C5.07677 12.83 4.87722 12.9331 4.7201 13.0868L4.6801 13.1268C4.55627 13.2507 4.40921 13.3491 4.24735 13.4162C4.08549 13.4833 3.91198 13.5178 3.73676 13.5178C3.56154 13.5178 3.38804 13.4833 3.22618 13.4162C3.06431 13.3491 2.91726 13.2507 2.79343 13.1268C2.66946 13.0029 2.57112 12.8559 2.50402 12.694C2.43692 12.5322 2.40238 12.3587 2.40238 12.1834C2.40238 12.0082 2.43692 11.8347 2.50402 11.6728C2.57112 11.511 2.66946 11.3639 2.79343 11.2401L2.83343 11.2001C2.98712 11.043 3.09022 10.8434 3.12943 10.6272C3.16865 10.4109 3.14217 10.1878 3.05343 9.98676C2.96892 9.78958 2.8286 9.62142 2.64974 9.50297C2.47088 9.38452 2.26129 9.32095 2.04676 9.3201H1.93343C1.57981 9.3201 1.24067 9.17962 0.990622 8.92957C0.740573 8.67952 0.600098 8.34039 0.600098 7.98676C0.600098 7.63314 0.740573 7.294 0.990622 7.04396C1.24067 6.79391 1.57981 6.65343 1.93343 6.65343H1.99343C2.21409 6.64827 2.4281 6.57684 2.60763 6.44844C2.78716 6.32003 2.92391 6.14059 3.0001 5.93343C3.08884 5.73235 3.11531 5.5093 3.0761 5.29304C3.03689 5.07677 2.93379 4.87722 2.7801 4.7201L2.7401 4.6801C2.61613 4.55627 2.51778 4.40922 2.45068 4.24735C2.38359 4.08549 2.34905 3.91198 2.34905 3.73676C2.34905 3.56154 2.38359 3.38804 2.45068 3.22618C2.51778 3.06431 2.61613 2.91726 2.7401 2.79343C2.86393 2.66946 3.01098 2.57112 3.17284 2.50402C3.33471 2.43692 3.50821 2.40238 3.68343 2.40238C3.85865 2.40238 4.03215 2.43692 4.19402 2.50402C4.35588 2.57112 4.50293 2.66946 4.62676 2.79343L4.66676 2.83343C4.82388 2.98712 5.02344 3.09022 5.2397 3.12943C5.45597 3.16865 5.67902 3.14217 5.8801 3.05343H5.93343C6.13061 2.96892 6.29877 2.8286 6.41723 2.64974C6.53568 2.47088 6.59924 2.26129 6.6001 2.04676V1.93343C6.6001 1.57981 6.74057 1.24067 6.99062 0.990622C7.24067 0.740573 7.57981 0.600098 7.93343 0.600098C8.28705 0.600098 8.62619 0.740573 8.87624 0.990622C9.12629 1.24067 9.26676 1.57981 9.26676 1.93343V1.99343C9.26762 2.20796 9.33118 2.41755 9.44963 2.59641C9.56808 2.77527 9.73625 2.91559 9.93343 3.0001C10.1345 3.08884 10.3576 3.11531 10.5738 3.0761C10.7901 3.03689 10.9896 2.93379 11.1468 2.7801L11.1868 2.7401C11.3106 2.61613 11.4576 2.51778 11.6195 2.45068C11.7814 2.38359 11.9549 2.34905 12.1301 2.34905C12.3053 2.34905 12.4788 2.38359 12.6407 2.45068C12.8025 2.51778 12.9496 2.61613 13.0734 2.7401C13.1974 2.86393 13.2957 3.01098 13.3628 3.17284C13.4299 3.33471 13.4645 3.50821 13.4645 3.68343C13.4645 3.85865 13.4299 4.03215 13.3628 4.19402C13.2957 4.35588 13.1974 4.50293 13.0734 4.62676L13.0334 4.66676C12.8797 4.82388 12.7766 5.02344 12.7374 5.2397C12.6982 5.45597 12.7247 5.67902 12.8134 5.8801V5.93343C12.8979 6.13061 13.0383 6.29878 13.2171 6.41723C13.396 6.53568 13.6056 6.59924 13.8201 6.6001H13.9334C14.2871 6.6001 14.6262 6.74057 14.8762 6.99062C15.1263 7.24067 15.2668 7.57981 15.2668 7.93343C15.2668 8.28705 15.1263 8.62619 14.8762 8.87624C14.6262 9.12629 14.2871 9.26676 13.9334 9.26676H13.8734C13.6589 9.26762 13.4493 9.33118 13.2705 9.44964C13.0916 9.56809 12.9513 9.73625 12.8668 9.93343V9.93343Z" stroke="#413DFB" stroke-width="1.2" stroke-linecap="round" stroke-linejoin="round"/>
</svg>
