<svg width="15" height="16" viewBox="0 0 15 16" fill="none" xmlns="http://www.w3.org/2000/svg">
<path d="M11.5279 5.06115C11.5279 3.91776 11.0737 2.8212 10.2652 2.01271C9.45667 1.20421 8.36011 0.75 7.21672 0.75C6.07334 0.75 4.97678 1.20421 4.16828 2.01271C3.35978 2.8212 2.90557 3.91776 2.90557 5.06115C2.90557 10.0908 0.75 11.5279 0.75 11.5279H13.6834C13.6834 11.5279 11.5279 10.0908 11.5279 5.06115Z" stroke="#FFAA2A" stroke-width="1.5" stroke-linecap="round" stroke-linejoin="round"/>
<path d="M8.45973 14.4023C8.3334 14.6201 8.15209 14.8009 7.93393 14.9265C7.71577 15.0522 7.46844 15.1183 7.21668 15.1183C6.96492 15.1183 6.71759 15.0522 6.49943 14.9265C6.28127 14.8009 6.09996 14.6201 5.97363 14.4023" stroke="#FFAA2A" stroke-width="1.5" stroke-linecap="round" stroke-linejoin="round"/>
</svg>
