<svg width="19" height="19" viewBox="0 0 19 19" fill="none" xmlns="http://www.w3.org/2000/svg">
<path d="M9.28799 17.7366C13.954 17.7366 17.7366 13.954 17.7366 9.28799C17.7366 4.62194 13.954 0.839355 9.28799 0.839355C4.62194 0.839355 0.839355 4.62194 0.839355 9.28799C0.839355 13.954 4.62194 17.7366 9.28799 17.7366Z" stroke="#FB6D3A" stroke-width="1.67823" stroke-linecap="round" stroke-linejoin="round"/>
<path d="M6.82959 6.75308C7.02822 6.18843 7.42028 5.7123 7.93632 5.40901C8.45237 5.10573 9.0591 4.99487 9.64905 5.09606C10.239 5.19725 10.7741 5.50397 11.1596 5.96189C11.5451 6.41981 11.756 6.99938 11.7551 7.59794C11.7551 9.28767 9.22055 10.1325 9.22055 10.1325" stroke="#FB6D3A" stroke-width="1.67823" stroke-linecap="round" stroke-linejoin="round"/>
<path d="M9.28857 13.4707H9.29658" stroke="#FB6D3A" stroke-width="1.67823" stroke-linecap="round" stroke-linejoin="round"/>
</svg>
