<svg width="16" height="18" viewBox="0 0 16 18" fill="none" xmlns="http://www.w3.org/2000/svg">
<path d="M3.11434 0.75L0.75 3.90245V14.936C0.75 15.3541 0.916066 15.755 1.21167 16.0506C1.50727 16.3462 1.90819 16.5123 2.32623 16.5123H13.3598C13.7779 16.5123 14.1788 16.3462 14.4744 16.0506C14.77 15.755 14.936 15.3541 14.936 14.936V3.90245L12.5717 0.75H3.11434Z" stroke="#369BFF" stroke-width="1.5" stroke-linecap="round" stroke-linejoin="round"/>
<path d="M0.75 3.90234H14.936" stroke="#369BFF" stroke-width="1.5" stroke-linecap="round" stroke-linejoin="round"/>
<path d="M10.9958 7.05469C10.9958 7.89077 10.6637 8.69261 10.0725 9.28381C9.48129 9.87501 8.67945 10.2071 7.84337 10.2071C7.00729 10.2071 6.20545 9.87501 5.61425 9.28381C5.02305 8.69261 4.69092 7.89077 4.69092 7.05469" stroke="#369BFF" stroke-width="1.5" stroke-linecap="round" stroke-linejoin="round"/>
</svg>
