<svg width="16" height="14" viewBox="0 0 16 14" fill="none" xmlns="http://www.w3.org/2000/svg">
<path d="M13.6705 1.81089C13.3284 1.47455 12.9222 1.20775 12.4752 1.02572C12.0282 0.843691 11.549 0.75 11.0651 0.75C10.5812 0.75 10.1021 0.843691 9.65504 1.02572C9.20801 1.20775 8.80185 1.47455 8.45976 1.81089L7.74982 2.50857L7.03988 1.81089C6.3489 1.13184 5.41172 0.750352 4.43453 0.750352C3.45733 0.750352 2.52016 1.13184 1.82917 1.81089C1.13819 2.48994 0.75 3.41092 0.75 4.37124C0.75 5.33157 1.13819 6.25255 1.82917 6.9316L2.53911 7.62928L7.74982 12.75L12.9605 7.62928L13.6705 6.9316C14.0127 6.59543 14.2842 6.19628 14.4694 5.75697C14.6547 5.31765 14.75 4.84678 14.75 4.37124C14.75 3.89571 14.6547 3.42484 14.4694 2.98552C14.2842 2.54621 14.0127 2.14706 13.6705 1.81089V1.81089Z" stroke="#B33DFB" stroke-width="1.5" stroke-linecap="round" stroke-linejoin="round"/>
</svg>
