<svg width="14" height="14" viewBox="0 0 14 14" fill="none" xmlns="http://www.w3.org/2000/svg">
<path d="M10.6431 0.643066C10.1126 0.643066 9.60393 0.85378 9.22885 1.22885C8.85378 1.60393 8.64307 2.11263 8.64307 2.64307V10.6431C8.64307 11.1735 8.85378 11.6822 9.22885 12.0573C9.60393 12.4324 10.1126 12.6431 10.6431 12.6431C11.1735 12.6431 11.6822 12.4324 12.0573 12.0573C12.4324 11.6822 12.6431 11.1735 12.6431 10.6431C12.6431 10.1126 12.4324 9.60393 12.0573 9.22885C11.6822 8.85378 11.1735 8.64307 10.6431 8.64307H2.64307C2.11263 8.64307 1.60393 8.85378 1.22885 9.22885C0.85378 9.60393 0.643066 10.1126 0.643066 10.6431C0.643066 11.1735 0.85378 11.6822 1.22885 12.0573C1.60393 12.4324 2.11263 12.6431 2.64307 12.6431C3.1735 12.6431 3.68221 12.4324 4.05728 12.0573C4.43235 11.6822 4.64307 11.1735 4.64307 10.6431V2.64307C4.64307 2.11263 4.43235 1.60393 4.05728 1.22885C3.68221 0.85378 3.1735 0.643066 2.64307 0.643066C2.11263 0.643066 1.60393 0.85378 1.22885 1.22885C0.85378 1.60393 0.643066 2.11263 0.643066 2.64307C0.643066 3.1735 0.85378 3.68221 1.22885 4.05728C1.60393 4.43235 2.11263 4.64307 2.64307 4.64307H10.6431C11.1735 4.64307 11.6822 4.43235 12.0573 4.05728C12.4324 3.68221 12.6431 3.1735 12.6431 2.64307C12.6431 2.11263 12.4324 1.60393 12.0573 1.22885C11.6822 0.85378 11.1735 0.643066 10.6431 0.643066Z" stroke="#2AE1E1" stroke-width="1.28571" stroke-linecap="round" stroke-linejoin="round"/>
</svg>
