<svg width="18" height="18" viewBox="0 0 18 18" fill="none" xmlns="http://www.w3.org/2000/svg">
<path d="M12.7594 1.32424C12.9713 1.1123 13.2229 0.94419 13.4998 0.829493C13.7767 0.714796 14.0735 0.655762 14.3732 0.655762C14.6729 0.655762 14.9697 0.714796 15.2466 0.829493C15.5235 0.94419 15.7751 1.1123 15.987 1.32424C16.199 1.53617 16.3671 1.78777 16.4818 2.06468C16.5965 2.34158 16.6555 2.63836 16.6555 2.93808C16.6555 3.2378 16.5965 3.53459 16.4818 3.81149C16.3671 4.08839 16.199 4.33999 15.987 4.55193L5.09359 15.4454L0.655518 16.6558L1.8659 12.2177L12.7594 1.32424Z" stroke="white" stroke-width="1.31125" stroke-linecap="round" stroke-linejoin="round"/>
</svg>
