<?xml version="1.0" encoding="UTF-8"?>
<svg version="1.1" xmlns="http://www.w3.org/2000/svg" width="1817" height="1266">
<path d="M0 0 C1.19131965 -0.00382555 2.38263931 -0.00765109 3.61005956 -0.01159257 C6.89112821 -0.02008109 10.17205239 -0.01970586 13.45312464 -0.01541197 C17.00300733 -0.01293339 20.55286431 -0.02197375 24.10273743 -0.02944946 C31.05275275 -0.0421745 38.00272939 -0.04399229 44.9527544 -0.0416492 C50.61586968 -0.03986072 56.27897329 -0.04162706 61.94208717 -0.04587364 C63.15472656 -0.04676643 63.15472656 -0.04676643 64.39186371 -0.04767724 C66.0348257 -0.04888915 67.67778769 -0.05010328 69.32074968 -0.05131962 C84.72299964 -0.06219011 100.12522771 -0.06003704 115.52747891 -0.05393478 C129.54799075 -0.04878571 143.56843267 -0.05996853 157.58893069 -0.07903299 C172.03661206 -0.09852486 186.48426058 -0.10664644 200.93195516 -0.10290974 C209.02197363 -0.10101224 217.11193292 -0.10333986 225.20194054 -0.11762428 C232.10245648 -0.12968587 239.00287699 -0.13078246 245.9033946 -0.11883412 C249.40905274 -0.11304217 252.91453775 -0.1115665 256.42018318 -0.12383652 C281.05560874 -0.19262554 305.45951149 1.56722927 329.80671692 5.44819641 C331.10593079 5.65468811 332.40514465 5.86117981 333.74372864 6.07392883 C376.18198016 13.06634441 418.58132734 27.51832944 450.55281067 57.21772766 C452.11640622 58.63499018 453.73380274 59.99423028 455.38874817 61.30366516 C473.15255448 75.68115621 485.35558258 100.3452205 491.99421692 121.88569641 C492.21996399 122.60515442 492.44571106 123.32461243 492.67829895 124.06587219 C493.47235709 126.78183978 494.1503073 129.50781164 494.80671692 132.26069641 C494.97361023 132.95012329 495.14050354 133.63955017 495.31245422 134.34986877 C498.59490557 148.29386595 499.37965053 161.73416731 499.21833801 176.03022766 C499.18137257 179.41724826 499.17732358 182.8031805 499.17781067 186.19038391 C499.16799095 188.38310157 499.15633898 190.57581197 499.14265442 192.76850891 C499.14042877 193.76141937 499.13820313 194.75432983 499.13591003 195.77732849 C499.05802866 201.59077011 498.45917272 207.05391573 497.29344177 212.75187683 C496.55308815 216.56802399 496.18707485 220.39372412 495.80671692 224.26069641 C496.51699036 224.50948547 497.22726379 224.75827454 497.95906067 225.01460266 C523.01316674 235.97792205 543.10762231 264.71143363 552.80671692 289.26069641 C557.41279399 301.52431885 560.61459725 313.69339888 562.29890442 326.68257141 C562.58971299 330.09093665 562.58971299 330.09093665 563.80671692 332.26069641 C563.90213825 333.91475782 563.93466817 335.57263553 563.93611145 337.22944641 C563.94083969 338.7811554 563.94083969 338.7811554 563.94566345 340.36421204 C563.94363922 341.48505188 563.94161499 342.60589172 563.93952942 343.76069641 C563.94048615 344.9073175 563.94144287 346.0539386 563.94242859 347.23530579 C563.94311003 349.66304072 563.94125827 352.09077747 563.93708801 354.51850891 C563.93173929 358.24511285 563.93703427 361.97159625 563.94343567 365.69819641 C563.94277488 368.05236335 563.94149371 370.4065302 563.93952942 372.76069641 C563.94155365 373.88153625 563.94357788 375.0023761 563.94566345 376.15718079 C563.94251129 377.19165344 563.93935913 378.2261261 563.93611145 379.29194641 C563.93491806 380.66189758 563.93491806 380.66189758 563.93370056 382.05952454 C563.80671692 384.26069641 563.80671692 384.26069641 562.80671692 386.26069641 C562.60000984 387.64625142 562.4377145 389.03857634 562.29890442 390.43257141 C558.48415744 425.41502345 548.37760128 458.75977782 532.80671692 490.26069641 C532.21890442 491.46290833 532.21890442 491.46290833 531.61921692 492.68940735 C512.17921486 532.12628653 480.22920301 562.0410953 442.80671692 584.26069641 C441.94046692 584.80725891 441.07421692 585.35382141 440.18171692 585.91694641 C429.62369266 592.42363578 418.15219205 597.30440169 406.80671692 602.26069641 C405.99267395 602.62235901 405.17863098 602.98402161 404.33992004 603.35664368 C397.2828565 606.35560669 390.01814886 608.11793045 382.55671692 609.82319641 C381.8982074 609.97477203 381.23969788 610.12634766 380.56123352 610.28251648 C368.71558259 612.99519413 356.90411825 615.06000993 344.80671692 616.26069641 C343.86634583 616.3568927 342.92597473 616.45308899 341.95710754 616.55220032 C328.70113487 617.85891068 315.47591608 618.38472862 302.16670227 618.64848328 C290.41404688 618.88359989 278.74051507 619.15518685 267.05671692 620.57319641 C265.68555725 620.73163025 265.68555725 620.73163025 264.28669739 620.89326477 C255.80053859 622.05905143 247.29723687 624.31680353 241.80671692 631.26069641 C237.64696307 637.33416062 236.68169554 643.04116777 235.65827942 650.26069641 C235.48062546 651.43111984 235.3029715 652.60154327 235.11993408 653.80743408 C234.54382695 657.62332029 233.98775278 661.44183864 233.43171692 665.26069641 C233.03427455 667.92855309 232.63239535 670.59573469 232.2303009 673.26289368 C231.43477784 678.55031803 230.64734307 683.83886276 229.86579895 689.12837219 C229.01256437 694.8934579 228.13946121 700.6549488 227.24031067 706.41304016 C227.12428497 707.1565976 227.00825928 707.90015503 226.88871765 708.66624451 C226.66106409 710.12433583 226.43333325 711.58241509 226.20552063 713.04048157 C224.31181871 725.19041811 222.49132737 737.3512609 220.68671227 749.51469612 C220.35596295 751.74369891 220.02489797 753.97265462 219.6937561 756.20159912 C218.36239146 765.1630792 218.36239146 765.1630792 217.03843689 774.12565613 C215.01142948 787.88913169 212.98028335 801.65125759 210.64265442 815.36616516 C210.48948761 816.28131897 210.3363208 817.19647278 210.17851257 818.13935852 C208.21023325 829.40764046 204.3060169 839.25859846 195.80671692 847.26069641 C186.26208894 853.53557184 178.19627494 855.28231398 166.77424622 855.11885071 C165.32866203 855.12343918 163.88308483 855.13105388 162.43753052 855.14141846 C158.55719121 855.1603083 154.67827274 855.1360277 150.79808021 855.10218024 C146.71575075 855.07302115 142.63346545 855.08093843 138.55105591 855.08364868 C131.70464389 855.08266289 124.85877766 855.05440631 118.01252747 855.00849915 C110.11652341 854.95578931 102.22119669 854.94183921 94.32503575 854.94953221 C86.69606743 854.95646325 79.06732618 854.94055621 71.43840981 854.91277504 C68.20536784 854.90112279 64.97243229 854.89652417 61.73937035 854.89757347 C57.93131452 854.89744698 54.12387477 854.87696097 50.31599236 854.8411808 C48.92493131 854.83116015 47.53380313 854.82775941 46.14271164 854.83172607 C36.54843134 854.85309999 29.25056828 854.05648611 21.80671692 847.69819641 C16.31815852 841.00901586 18.31168672 828.56965761 19.07679749 820.36421204 C19.91470658 813.13775119 21.01743927 805.95072152 22.11921692 798.76069641 C22.4322987 796.64759745 22.74415217 794.53431613 23.05476379 792.42085266 C24.88878064 780.02099964 26.84545632 767.64092332 28.80671692 755.26069641 C27.95526155 755.25922985 27.10380619 755.25776329 26.22654915 755.25625229 C5.48511769 755.21916077 -15.25615066 755.16011489 -35.99744987 755.07679367 C-46.02789952 755.03702618 -56.05827097 755.00462204 -66.08879089 754.98970032 C-74.83391521 754.97667194 -83.57886731 754.94967699 -92.32389462 754.90608335 C-96.95206828 754.88349522 -101.58002973 754.86778414 -106.2082634 754.86881256 C-110.57009398 754.86956074 -114.93145594 754.85154687 -119.29316521 754.81952858 C-120.88859989 754.81105353 -122.48408728 754.8092633 -124.07953453 754.81489372 C-143.28053398 754.8735967 -143.28053398 754.8735967 -150.15044975 748.42298508 C-156.83373895 740.98218333 -155.84998847 732.67215706 -155.47599792 723.11177063 C-154.61798735 711.42415504 -152.41173427 699.84303624 -150.4864502 688.29362488 C-149.32645034 681.25897415 -148.31149879 674.20733748 -147.31828308 667.14741516 C-145.12204914 651.56673037 -142.72026976 636.02064221 -140.2976799 620.47392273 C-139.81428354 617.36983782 -139.3322314 614.26554472 -138.85016537 611.16125298 C-135.71642027 590.98217425 -132.56003903 570.80666601 -129.38923645 550.63337708 C-124.96706945 522.49842653 -120.65935007 494.34651319 -116.38002014 466.18952942 C-113.9987396 450.52354838 -111.60240044 434.85992106 -109.19328308 419.19819641 C-109.02574524 418.10894867 -108.8582074 417.01970093 -108.68559265 415.89744568 C-106.47568594 401.53531356 -104.2474732 387.17612307 -102.00654602 372.81880188 C-99.7122316 358.11831895 -97.45093941 343.41382606 -95.25578308 328.69819641 C-88.93274869 286.31703503 -82.29988893 243.98217511 -75.71861267 201.64051819 C-75.21091123 198.37411092 -74.70330599 195.10768872 -74.19572449 191.84126282 C-73.87850832 189.80008383 -73.56128836 187.75890543 -73.24406433 185.71772766 C-73.01548485 184.24676888 -73.01548485 184.24676888 -72.7822876 182.74609375 C-72.04658505 178.01272992 -71.30998885 173.27950833 -70.57145691 168.54658508 C-69.35604254 160.75539893 -68.14447064 152.96392523 -66.96672058 145.16694641 C-64.1298778 126.4927655 -60.89274592 107.89934072 -57.56974792 89.30610657 C-55.81046677 79.45687386 -54.06325588 69.60852343 -52.45500183 59.73335266 C-52.19324499 58.14195557 -51.93144626 56.55056536 -51.66960144 54.95918274 C-51.20285685 52.11845946 -50.75113998 49.27595518 -50.3087616 46.43135071 C-48.00757281 32.42036026 -44.7892482 16.8364311 -33.13468933 7.57319641 C-23.08877306 0.78159104 -11.79658284 -0.04062036 0 0 Z " fill="#003084" transform="translate(704.1932830810547,273.7393035888672)"/>
<path d="M0 0 C7.05219615 3.54313237 13.00212683 7.89070063 19 13 C20.22203125 14.03640625 20.22203125 14.03640625 21.46875 15.09375 C47.9300536 38.2055215 62.98141864 68.63537275 67.4921875 103.421875 C67.78299607 106.83024023 67.78299607 106.83024023 69 109 C69.09542133 110.65406141 69.12795125 112.31193912 69.12939453 113.96875 C69.13412277 115.52045898 69.13412277 115.52045898 69.13894653 117.10351562 C69.1369223 118.22435547 69.13489807 119.34519531 69.1328125 120.5 C69.13376923 121.64662109 69.13472595 122.79324219 69.13571167 123.97460938 C69.13639311 126.40234431 69.13454135 128.83008105 69.13037109 131.2578125 C69.12502237 134.98441643 69.13031735 138.71089984 69.13671875 142.4375 C69.13605796 144.79166693 69.13477679 147.14583379 69.1328125 149.5 C69.13483673 150.62083984 69.13686096 151.74167969 69.13894653 152.89648438 C69.13579437 153.93095703 69.13264221 154.96542969 69.12939453 156.03125 C69.12820114 157.40120117 69.12820114 157.40120117 69.12698364 158.79882812 C69 161 69 161 68 163 C67.79329292 164.38555501 67.63099758 165.77787993 67.4921875 167.171875 C63.67744052 202.15432704 53.57088436 235.49908141 38 267 C37.4121875 268.20221191 37.4121875 268.20221191 36.8125 269.42871094 C17.37249794 308.86559012 -14.57751391 338.78039889 -52 361 C-52.86625 361.5465625 -53.7325 362.093125 -54.625 362.65625 C-65.18302426 369.16293937 -76.65452487 374.04370527 -88 379 C-88.81404297 379.3616626 -89.62808594 379.7233252 -90.46679688 380.09594727 C-97.52386042 383.09491028 -104.78856806 384.85723404 -112.25 386.5625 C-112.90850952 386.71407562 -113.56701904 386.86565125 -114.2454834 387.02182007 C-126.09113433 389.73449772 -137.90259867 391.79931352 -150 393 C-150.94037109 393.09619629 -151.88074219 393.19239258 -152.84960938 393.29150391 C-166.10558205 394.59821427 -179.33080083 395.12403221 -192.64001465 395.38778687 C-204.39267004 395.62290348 -216.06620185 395.89449044 -227.75 397.3125 C-228.66410645 397.41812256 -229.57821289 397.52374512 -230.52001953 397.63256836 C-239.00617832 398.79835502 -247.50948005 401.05610712 -253 408 C-257.15975385 414.07346421 -258.12502138 419.78047136 -259.1484375 427 C-259.41491844 428.75563515 -259.41491844 428.75563515 -259.68678284 430.54673767 C-260.26288997 434.36262387 -260.81896413 438.18114223 -261.375 442 C-261.77244237 444.66785667 -262.17432156 447.33503828 -262.57641602 450.00219727 C-263.37193908 455.28962162 -264.15937385 460.57816634 -264.94091797 465.86767578 C-265.79415255 471.63276149 -266.66725571 477.39425239 -267.56640625 483.15234375 C-267.68243195 483.89590118 -267.79845764 484.63945862 -267.91799927 485.4055481 C-268.14565283 486.86363942 -268.37338367 488.32171868 -268.60119629 489.77978516 C-270.49489821 501.9297217 -272.31538955 514.09056449 -274.12000465 526.25399971 C-274.45075397 528.4830025 -274.78181895 530.71195821 -275.11296082 532.94090271 C-276.44432546 541.90238279 -276.44432546 541.90238279 -277.76828003 550.86495972 C-279.79528744 564.62843528 -281.82643357 578.39056118 -284.1640625 592.10546875 C-284.31722931 593.02062256 -284.47039612 593.93577637 -284.62820435 594.87866211 C-286.59648367 606.14694405 -290.50070001 615.99790205 -299 624 C-308.54462798 630.27487543 -316.61044198 632.02161757 -328.0324707 631.8581543 C-329.47805489 631.86274277 -330.92363209 631.87035747 -332.3691864 631.88072205 C-336.24952571 631.89961189 -340.12844418 631.87533129 -344.00863671 631.84148383 C-348.09096617 631.81232474 -352.17325147 631.82024202 -356.25566101 631.82295227 C-363.10207303 631.82196648 -369.94793926 631.7937099 -376.79418945 631.74780273 C-384.6901935 631.6950929 -392.58552023 631.6811428 -400.48168117 631.6888358 C-408.11064949 631.69576684 -415.73939074 631.6798598 -423.36830711 631.65207863 C-426.60134908 631.64042638 -429.83428463 631.63582776 -433.06734657 631.63687706 C-436.8754024 631.63675057 -440.68284215 631.61626456 -444.49072456 631.58048439 C-445.88178561 631.57046374 -447.27291379 631.56706299 -448.66400528 631.57102966 C-458.25828558 631.59240358 -465.55614864 630.7957897 -473 624.4375 C-478.4885584 617.74831945 -476.4950302 605.3089612 -475.72991943 597.10351562 C-474.89201034 589.87705478 -473.78927764 582.69002511 -472.6875 575.5 C-472.37441822 573.38690104 -472.06256475 571.27361972 -471.75195312 569.16015625 C-470.99964842 564.0665367 -470.22574526 558.97653741 -469.4418335 553.88769531 C-469.00984028 551.06431322 -468.5890127 548.23945714 -468.17041016 545.4140625 C-467.91208006 543.70308025 -467.65346986 541.99214026 -467.39453125 540.28125 C-467.2824382 539.51123657 -467.17034515 538.74122314 -467.05485535 537.94787598 C-466.61659104 535.09834448 -466.19575779 532.4529374 -465.04740906 529.79592896 C-463.664098 526.10335114 -463.10968928 522.36137651 -462.51953125 518.48193359 C-462.38612839 517.63652134 -462.25272552 516.79110909 -462.11528015 515.92007828 C-461.67529502 513.12206094 -461.24384055 510.32279945 -460.8125 507.5234375 C-460.50307281 505.54333288 -460.19316859 503.56330275 -459.8828125 501.58334351 C-459.07372084 496.41066793 -458.27218692 491.23685271 -457.47320557 486.06260681 C-457.01774145 483.11482345 -456.56071849 480.16728695 -456.10302734 477.21984863 C-454.20508298 464.99557958 -452.32283446 452.76893673 -450.44740677 440.54119492 C-449.83516747 436.55062243 -449.22204908 432.56018518 -448.60896015 428.56974316 C-444.07867896 399.0821164 -439.56417144 369.59210317 -435.10742188 340.09326172 C-434.79558797 338.02962012 -434.48373885 335.96598082 -434.171875 333.90234375 C-434.01753998 332.88090775 -433.86320496 331.85947174 -433.70419312 330.80708313 C-432.52728993 323.02576091 -431.33627869 315.2466607 -430.13833618 307.46855164 C-429.35739758 302.38383373 -428.6074748 297.296155 -427.8828125 292.203125 C-425.95999872 279.07404811 -423.71709797 265.89625678 -412.625 257.12109375 C-398.21999295 247.8821681 -384.44955743 246.87086423 -367.80140305 246.80032349 C-364.29436237 246.78479711 -360.78744368 246.75727553 -357.28047371 246.73049545 C-355.42447313 246.7163682 -353.56846888 246.70271641 -351.71246147 246.68951797 C-303.78813184 246.3618555 -303.78813184 246.3618555 -256 243 C-254.81067871 242.88398437 -253.62135742 242.76796875 -252.39599609 242.6484375 C-203.32186217 237.73173382 -153.39591925 223.07316725 -113 194 C-112.44119141 193.59813477 -111.88238281 193.19626953 -111.30664062 192.78222656 C-102.62916219 186.46994594 -94.7221648 179.43852238 -87 172 C-86.47486816 171.49678223 -85.94973633 170.99356445 -85.40869141 170.47509766 C-78.39488729 163.72194901 -71.94149423 156.73418645 -66 149 C-65.37641602 148.19103271 -65.37641602 148.19103271 -64.74023438 147.36572266 C-39.43864978 114.33309833 -20.17273185 76.09561138 -9 36 C-8.79036621 35.25202148 -8.58073242 34.50404297 -8.36474609 33.73339844 C-5.70671818 24.15825752 -3.38733704 14.58044252 -1.578125 4.80859375 C-1 2 -1 2 0 0 Z " fill="#019BDD" transform="translate(1199,497)"/>
<path d="M0 0 C2.11601439 -0.00435651 4.2320272 -0.00954276 6.34803772 -0.01548767 C12.05747595 -0.02879529 17.76684763 -0.02946503 23.47629833 -0.02692437 C28.26870948 -0.02584795 33.06110754 -0.03075563 37.85351586 -0.03552979 C49.18148815 -0.0465989 60.50942728 -0.04707857 71.83740234 -0.04101562 C83.45415498 -0.03499269 95.07078599 -0.0472501 106.68751788 -0.06858569 C116.7161926 -0.0863153 126.74482902 -0.09218487 136.7735188 -0.08894795 C142.7383564 -0.0871512 148.70310745 -0.08960684 154.6679306 -0.10366249 C201.04191353 -0.20380486 201.04191353 -0.20380486 222.2203064 2.93945599 C225.80081264 3.43916939 229.3815131 3.7302469 232.98535156 4.01293945 C264.18882715 6.55568614 292.9318368 12.38243178 320.62207031 27.2746582 C320.91188842 33.44607915 319.84014636 39.0134393 318.49707031 45.0246582 C318.27116211 46.04180908 318.04525391 47.05895996 317.8125 48.10693359 C305.36868208 102.57629939 278.08273324 154.77049662 239.62207031 195.2746582 C239.11659668 195.80881348 238.61112305 196.34296875 238.09033203 196.89331055 C230.17985263 205.19351734 221.81794178 212.43874369 212.62207031 219.2746582 C212.06438965 219.6984375 211.50670898 220.1222168 210.93212891 220.55883789 C201.37436865 227.81570751 191.2715213 233.76032162 180.62207031 239.2746582 C179.50687012 239.85280273 179.50687012 239.85280273 178.36914062 240.44262695 C140.47602242 259.81058794 98.38214721 269.06882837 56.17202759 272.08764648 C54.31737286 272.2236653 52.4632415 272.36687899 50.60946655 272.5144043 C25.9352554 274.46577954 1.31674654 274.65448556 -23.42169189 274.79034424 C-29.03562693 274.82179653 -34.64940317 274.86102383 -40.26320839 274.91059875 C-42.84429361 274.93032281 -45.42524961 274.93890031 -48.00639343 274.94689941 C-64.54139721 275.05366865 -81.64462973 276.45726228 -94.37792969 288.2746582 C-96.18861027 290.753839 -97.69252812 293.22919553 -99.12402344 295.94262695 C-100.36296346 298.24682381 -101.78921558 300.20248172 -103.37792969 302.2746582 C-102.76638934 294.39594754 -101.74769289 286.63896722 -100.50292969 278.8371582 C-100.14322544 276.54293897 -99.78385399 274.24866753 -99.42480469 271.9543457 C-99.24755859 270.82738281 -99.0703125 269.70041992 -98.88769531 268.53930664 C-98.1554689 263.8499716 -97.45198543 259.15653382 -96.75292969 254.4621582 C-96.5095516 252.83453736 -96.26606684 251.20693246 -96.02246094 249.5793457 C-95.85544678 248.46317871 -95.85544678 248.46317871 -95.68505859 247.32446289 C-93.22826072 230.92758298 -90.72677393 214.52400204 -87.75292969 198.2121582 C-86.58998405 191.79692996 -85.74230754 185.3729322 -84.97167969 178.8996582 C-83.1627031 164.32297733 -80.74363774 149.79395202 -78.08886719 135.34887695 C-76.19427072 124.75443559 -74.76686113 114.07799388 -73.26193237 103.42276001 C-71.52541839 91.1451858 -69.7768413 78.87255514 -67.75927734 66.63745117 C-67.31670937 63.89534308 -66.90061875 61.14964069 -66.48339844 58.40356445 C-60.13980418 17.42259519 -60.13980418 17.42259519 -46.42089844 6.63793945 C-33.63308058 -1.89542275 -14.70294942 -0.02017499 0 0 Z " fill="#012069" transform="translate(877.3779296875,469.725341796875)"/>
<path d="M0 0 C0.66 0 1.32 0 2 0 C0.25 5.75 0.25 5.75 -2 8 C-2.125 5.125 -2.125 5.125 -2 2 C-1.34 1.34 -0.68 0.68 0 0 Z " fill="#012975" transform="translate(776,764)"/>
</svg>
