<svg width="24" height="24" viewBox="0 0 24 24" fill="none" xmlns="http://www.w3.org/2000/svg">
<path d="M12 2.14673C13.2544 2.14673 14.3396 2.57041 15.0322 3.19263C15.7204 3.81101 16.0068 4.60404 15.7568 5.40454L15.6553 5.73071L15.9824 5.82446C16.5916 5.9996 17.038 6.56202 17.0381 7.22485C17.0381 7.85271 16.6384 8.39092 16.0781 8.59497L15.8438 8.67993L15.8594 8.92993C15.9376 10.1469 16.3265 11.6477 16.8213 13.1799C17.3177 14.7172 17.9294 16.313 18.4648 17.7209C19.2222 19.7138 17.7478 21.8528 15.6152 21.8528H8.38477C6.25287 21.8528 4.77762 19.7144 5.53516 17.7209C6.05696 16.3489 6.66837 14.7579 7.16797 13.2141C7.66595 11.6753 8.06185 10.1561 8.14062 8.92993L8.15625 8.67993L7.92188 8.59497C7.36165 8.39089 6.96191 7.85267 6.96191 7.22485C6.96203 6.56202 7.4084 5.99956 8.01758 5.82446L8.34473 5.73071L8.24316 5.40454C7.99328 4.60419 8.27965 3.81103 8.96777 3.19263C9.66034 2.57039 10.7454 2.14674 12 2.14673ZM11.8496 13.7649L6.70215 16.3752L6.58594 16.4338L6.54004 16.5549C6.37498 16.9933 6.21641 17.4101 6.02734 17.9075C5.39949 19.5592 6.616 21.3254 8.38477 21.3254H15.6152C17.3822 21.3254 18.6012 19.5608 17.9727 17.9075C17.7933 17.4357 17.6275 16.9998 17.46 16.5549L17.4141 16.4338L17.2988 16.3752L12.1504 13.7649L12 13.6877L11.8496 13.7649ZM8.66504 8.99341C8.55282 10.659 7.91417 12.7653 7.14551 14.9143L6.86328 15.7024L7.60938 15.3245L11.8809 13.1575C11.9556 13.1195 12.0443 13.1195 12.1191 13.1575L16.3906 15.3245L17.1367 15.7024L16.8545 14.9143C16.0859 12.7654 15.4482 10.659 15.3359 8.99341L15.3145 8.68188H8.68555L8.66504 8.99341ZM8.41895 6.29517C7.90585 6.29518 7.4894 6.71179 7.48926 7.22485C7.48926 7.73804 7.90576 8.1555 8.41895 8.15552H15.5811C16.0943 8.15552 16.5117 7.73805 16.5117 7.22485C16.5116 6.71178 16.0942 6.29517 15.5811 6.29517H8.41895ZM12.9307 2.75708L12.6416 2.71802C12.2144 2.66003 11.7855 2.66002 11.3584 2.71802L11.0703 2.75708V3.6438C11.0703 3.78923 10.952 3.90732 10.8066 3.90747C10.6611 3.90747 10.543 3.78932 10.543 3.6438V2.86841L10.0664 3.09497C9.57889 3.32749 9.13547 3.6725 8.88672 4.10376C8.62674 4.55452 8.58919 5.08914 8.91309 5.6106L9.01074 5.76782H14.9893L15.0869 5.6106C15.3961 5.1128 15.3787 4.58894 15.1309 4.13501C14.8928 3.69901 14.453 3.34269 13.9336 3.09497L13.457 2.86841V3.6438C13.457 3.78932 13.3389 3.90747 13.1934 3.90747C13.048 3.90727 12.9307 3.7892 12.9307 3.6438V2.75708Z" fill="#FB6D3A" stroke="#FB6D3A" stroke-width="0.666667"/>
<path d="M9.61296 18.5648C9.94259 18.5648 10.2098 18.2976 10.2098 17.9679C10.2098 17.6383 9.94259 17.3711 9.61296 17.3711C9.28333 17.3711 9.01611 17.6383 9.01611 17.9679C9.01611 18.2976 9.28333 18.5648 9.61296 18.5648Z" fill="#FB6D3A"/>
<path d="M11.4035 16.7745C11.7331 16.7745 12.0003 16.5073 12.0003 16.1777C12.0003 15.848 11.7331 15.5808 11.4035 15.5808C11.0739 15.5808 10.8066 15.848 10.8066 16.1777C10.8066 16.5073 11.0739 16.7745 11.4035 16.7745Z" fill="#FB6D3A"/>
<path d="M12.5973 19.162C12.927 19.162 13.1942 18.8947 13.1942 18.5651C13.1942 18.2355 12.927 17.9683 12.5973 17.9683C12.2677 17.9683 12.0005 18.2355 12.0005 18.5651C12.0005 18.8947 12.2677 19.162 12.5973 19.162Z" fill="#FB6D3A"/>
</svg>
