<svg width="375" height="812" viewBox="0 0 375 812" fill="none" xmlns="http://www.w3.org/2000/svg">
<g clip-path="url(#clip0_38_1923)">
<rect width="375" height="812" rx="20" fill="white"/>
<circle opacity="0.05" cx="48.5" cy="-32.5" r="88.5" transform="rotate(90 48.5 -32.5)" stroke="#1E1E2E" stroke-width="94" stroke-dasharray="4 4"/>
<ellipse cx="405.5" cy="812" rx="146" ry="147.5" transform="rotate(90 405.5 812)" stroke="url(#paint0_linear_38_1923)" stroke-width="200" stroke-dasharray="6 6"/>
<path d="M131.071 433.166C133.405 433.166 135.082 431.37 135.082 429.035V417.421H146.515C148.611 417.421 150.227 415.865 150.227 413.77C150.227 411.734 148.671 410.118 146.515 410.118H135.082V400.241H149.748C151.843 400.241 153.46 398.624 153.46 396.589C153.46 394.494 151.903 392.937 149.748 392.937H131.131C128.736 392.937 127 394.673 127 397.068V429.035C127 431.37 128.676 433.166 131.071 433.166Z" fill="#181C2E"/>
<circle cx="230.461" cy="417.727" r="13.7391" stroke="#E8E8E8" stroke-width="0.736025" stroke-linecap="round" stroke-linejoin="round" stroke-dasharray="0.99 2.96"/>
<path d="M213.537 418.789C213.537 426.242 207.495 432.283 200.042 432.283C192.589 432.283 186.547 426.242 186.547 418.789C186.547 411.336 192.589 405.294 200.042 405.294C207.495 405.294 213.537 411.336 213.537 418.789ZM194.529 418.789C194.529 421.833 196.998 424.301 200.042 424.301C203.087 424.301 205.555 421.833 205.555 418.789C205.555 415.744 203.087 413.276 200.042 413.276C196.998 413.276 194.529 415.744 194.529 418.789Z" fill="#FF7622"/>
<path d="M182.499 418.789C182.499 426.242 176.457 432.283 169.004 432.283C161.551 432.283 155.509 426.242 155.509 418.789C155.509 411.336 161.551 405.294 169.004 405.294C176.457 405.294 182.499 411.336 182.499 418.789ZM163.491 418.789C163.491 421.833 165.96 424.301 169.004 424.301C172.049 424.301 174.517 421.833 174.517 418.789C174.517 415.744 172.049 413.276 169.004 413.276C165.96 413.276 163.491 415.744 163.491 418.789Z" fill="#FF7622"/>
<path fill-rule="evenodd" clip-rule="evenodd" d="M149.499 428.241C149.499 427.996 149.697 427.797 149.942 427.797H156.702C156.947 427.797 157.146 427.996 157.146 428.241C157.146 428.486 156.947 428.685 156.702 428.685H149.942C149.697 428.685 149.499 428.486 149.499 428.241Z" fill="#FF7622"/>
<path fill-rule="evenodd" clip-rule="evenodd" d="M180.577 428.241C180.577 427.996 180.776 427.797 181.021 427.797H187.78C188.025 427.797 188.224 427.996 188.224 428.241C188.224 428.486 188.025 428.685 187.78 428.685H181.021C180.776 428.685 180.577 428.486 180.577 428.241Z" fill="#FF7622"/>
<path fill-rule="evenodd" clip-rule="evenodd" d="M144.101 431.839C144.101 431.594 144.299 431.396 144.544 431.396L156.702 431.396C156.947 431.396 157.146 431.594 157.146 431.839C157.146 432.085 156.947 432.283 156.702 432.283L144.544 432.283C144.299 432.283 144.101 432.085 144.101 431.839Z" fill="#FF7622"/>
<path fill-rule="evenodd" clip-rule="evenodd" d="M175.18 431.839C175.18 431.594 175.378 431.396 175.624 431.396L187.781 431.396C188.026 431.396 188.225 431.594 188.225 431.839C188.225 432.085 188.026 432.283 187.781 432.283L175.624 432.283C175.378 432.283 175.18 432.085 175.18 431.839Z" fill="#FF7622"/>
<path fill-rule="evenodd" clip-rule="evenodd" d="M149.499 435.438C149.499 435.193 149.697 434.994 149.942 434.994L162.1 434.994C162.345 434.994 162.544 435.193 162.544 435.438C162.544 435.683 162.345 435.882 162.1 435.882L149.942 435.882C149.697 435.882 149.499 435.683 149.499 435.438Z" fill="#FF7622"/>
<path fill-rule="evenodd" clip-rule="evenodd" d="M180.577 435.438C180.577 435.193 180.776 434.994 181.021 434.994L193.178 434.994C193.423 434.994 193.622 435.193 193.622 435.438C193.622 435.683 193.423 435.882 193.178 435.882L181.021 435.882C180.776 435.882 180.577 435.683 180.577 435.438Z" fill="#FF7622"/>
<path d="M204.454 403.742C205.538 403.742 206.426 402.861 206.327 401.782C205.871 396.84 203.704 392.187 200.165 388.649C196.162 384.646 190.733 382.397 185.072 382.397C179.411 382.397 173.982 384.646 169.979 388.649C166.441 392.187 164.273 396.84 163.818 401.782C163.718 402.861 164.606 403.742 165.69 403.742L185.072 403.742H204.454Z" fill="#FF7622"/>
<path d="M187.771 380.925C187.771 382.551 186.563 383.87 185.072 383.87C183.582 383.87 182.374 382.551 182.374 380.925C182.374 379.299 183.582 377.981 185.072 377.981C186.563 377.981 187.771 379.299 187.771 380.925Z" fill="white"/>
<path fill-rule="evenodd" clip-rule="evenodd" d="M185.072 378.963C184.202 378.963 183.355 379.759 183.355 380.925C183.355 382.092 184.202 382.888 185.072 382.888C185.942 382.888 186.79 382.092 186.79 380.925C186.79 379.759 185.942 378.963 185.072 378.963ZM181.392 380.925C181.392 378.84 182.961 377 185.072 377C187.183 377 188.752 378.84 188.752 380.925C188.752 383.011 187.183 384.851 185.072 384.851C182.961 384.851 181.392 383.011 181.392 380.925Z" fill="#FF7622"/>
<path d="M176.357 389.022C176.119 388.627 175.606 388.495 175.219 388.746C172.293 390.648 169.996 393.354 168.615 396.529C168.426 396.963 168.653 397.457 169.097 397.62C169.534 397.781 170.018 397.558 170.206 397.131C171.446 394.314 173.483 391.909 176.072 390.203C176.464 389.945 176.599 389.424 176.357 389.022Z" fill="white"/>
<path d="M179.767 387.499C179.622 387.061 179.149 386.82 178.717 386.982C178.253 387.155 177.798 387.348 177.35 387.559C176.926 387.759 176.772 388.276 176.996 388.688C177.217 389.093 177.722 389.243 178.141 389.048C178.499 388.881 178.864 388.726 179.234 388.585C179.671 388.419 179.914 387.943 179.767 387.499Z" fill="white"/>
<rect x="238.802" y="392.211" width="9.32298" height="40.236" rx="4.66149" fill="#181C2E"/>
<path d="M245.181 417.972C245.181 425.967 238.701 432.447 230.706 432.447C222.712 432.447 216.231 425.967 216.231 417.972C216.231 409.978 222.712 403.497 230.706 403.497C238.701 403.497 245.181 409.978 245.181 417.972ZM224.793 417.972C224.793 421.238 227.44 423.885 230.706 423.885C233.972 423.885 236.619 421.238 236.619 417.972C236.619 414.706 233.972 412.059 230.706 412.059C227.44 412.059 224.793 414.706 224.793 417.972Z" fill="#181C2E"/>
</g>
<defs>
<linearGradient id="paint0_linear_38_1923" x1="405.12" y1="772.833" x2="391.65" y2="1047.82" gradientUnits="userSpaceOnUse">
<stop stop-color="#FFD88C"/>
<stop offset="1" stop-color="#FF7622"/>
</linearGradient>
<clipPath id="clip0_38_1923">
<rect width="375" height="812" rx="20" fill="white"/>
</clipPath>
</defs>
</svg>
