<svg width="21" height="20" viewBox="0 0 21 20" fill="none" xmlns="http://www.w3.org/2000/svg">
<path d="M9.90292 1.13855C9.96252 0.953735 10.224 0.953734 10.2836 1.13855L12.282 7.33514C12.3087 7.41791 12.3859 7.47395 12.4728 7.47376L18.9837 7.45953C19.1779 7.4591 19.2587 7.70779 19.1013 7.82158L13.8256 11.6371C13.7551 11.688 13.7256 11.7787 13.7527 11.8613L15.7782 18.0491C15.8386 18.2337 15.6271 18.3874 15.4702 18.2729L10.2112 14.4344C10.1409 14.3831 10.0456 14.3831 9.97535 14.4344L4.71632 18.2729C4.55947 18.3874 4.34792 18.2337 4.40833 18.0491L6.43383 11.8613C6.46089 11.7787 6.43143 11.688 6.36096 11.6371L1.0852 7.82158C0.927848 7.70779 1.00865 7.4591 1.20284 7.45953L7.7137 7.47376C7.80067 7.47395 7.87779 7.41791 7.90448 7.33514L9.90292 1.13855Z" stroke="#FF7622" stroke-width="2"/>
</svg>
